<svg id="Camada_1" data-name="Camada 1" xmlns="http://www.w3.org/2000/svg" viewBox="0 0 139.77 88.73"><title>tmn2</title><path d="M55.32,30.44a12.05,12.05,0,0,0,3.5-.64v4.14a12.48,12.48,0,0,1-5.11.93q-3.34,0-4.86-1.69a7.34,7.34,0,0,1-1.52-5.06V18.3H44.67V15.95l3.06-1.86,1.6-4.3h3.56v4.34H58.6V18.3H52.89v9.83a2.17,2.17,0,0,0,.67,1.75A2.63,2.63,0,0,0,55.32,30.44Z"/><path d="M81.75,34.51H76.19V22.6q0-4.41-3.28-4.41a3.73,3.73,0,0,0-3.37,1.59,9.68,9.68,0,0,0-1,5.14v9.59H62.94V6.14H68.5v5.78q0,.68-.13,3.17l-.13,1.64h.29a6.44,6.44,0,0,1,5.91-3,7.22,7.22,0,0,1,5.45,1.93,7.68,7.68,0,0,1,1.86,5.54Z"/><path d="M96.7,34.87q-4.92,0-7.69-2.72t-2.77-7.69q0-5.12,2.56-7.92a9.12,9.12,0,0,1,7.08-2.8,9,9,0,0,1,6.73,2.46A9.31,9.31,0,0,1,105,23v2.7H91.87a5.35,5.35,0,0,0,1.4,3.7A4.94,4.94,0,0,0,97,30.74a15.28,15.28,0,0,0,3.48-.38,17.42,17.42,0,0,0,3.43-1.22v4.3a13,13,0,0,1-3.12,1.08A19.67,19.67,0,0,1,96.7,34.87ZM95.92,17.7a3.53,3.53,0,0,0-2.77,1.12A5.18,5.18,0,0,0,92,22h7.8a4.64,4.64,0,0,0-1.08-3.18A3.64,3.64,0,0,0,95.92,17.7Z"/><path d="M65,58.37H59.42V46.46a6,6,0,0,0-.74-3.31,2.6,2.6,0,0,0-2.32-1.1,3.37,3.37,0,0,0-3.1,1.57,10.28,10.28,0,0,0-1,5.16v9.59H46.73V38H51l.75,2.61H52a5.65,5.65,0,0,1,2.37-2.2A7.7,7.7,0,0,1,58,37.6q4.58,0,6.2,3h.49a5.51,5.51,0,0,1,2.42-2.21,8.06,8.06,0,0,1,3.6-.78,7.11,7.11,0,0,1,5.24,1.78q1.78,1.78,1.78,5.7V58.37H72.11V46.46a6,6,0,0,0-.74-3.31A2.6,2.6,0,0,0,69,42.05,3.47,3.47,0,0,0,66,43.51a8.28,8.28,0,0,0-1,4.63Z"/><path d="M92.62,58.73q-4.92,0-7.69-2.72t-2.77-7.69q0-5.12,2.56-7.92a9.12,9.12,0,0,1,7.08-2.8,9,9,0,0,1,6.73,2.46,9.31,9.31,0,0,1,2.41,6.8v2.7H87.79a5.35,5.35,0,0,0,1.4,3.7,4.94,4.94,0,0,0,3.68,1.33,15.28,15.28,0,0,0,3.48-.38A17.42,17.42,0,0,0,99.79,53v4.3a13,13,0,0,1-3.12,1.08A19.67,19.67,0,0,1,92.62,58.73Zm-.78-17.17a3.53,3.53,0,0,0-2.77,1.12,5.18,5.18,0,0,0-1.15,3.18h7.8a4.64,4.64,0,0,0-1.08-3.18A3.64,3.64,0,0,0,91.84,41.56Z"/><path d="M111.91,58.73a6.62,6.62,0,0,1-5.64-2.79q-2.05-2.79-2.05-7.73t2.09-7.81a6.78,6.78,0,0,1,5.75-2.8,6.65,6.65,0,0,1,5.87,3h.18a22.67,22.67,0,0,1-.42-4.07V30h5.58V58.37H119l-1.08-2.64h-.24A6.36,6.36,0,0,1,111.91,58.73Zm2-4.43A3.77,3.77,0,0,0,117,53.06a7.22,7.22,0,0,0,1.08-4.21v-.6a8.34,8.34,0,0,0-1-4.7,3.76,3.76,0,0,0-3.29-1.42,3.27,3.27,0,0,0-2.89,1.58,8.42,8.42,0,0,0-1,4.59,8,8,0,0,0,1,4.51A3.39,3.39,0,0,0,113.86,54.3Z"/><path d="M63.7,63.39a7.11,7.11,0,0,0-5.39-1.93,8.67,8.67,0,0,0-3.7.75A5.88,5.88,0,0,0,52,64.45h-.31L51,61.85H46.73V78.34H36.49a16,16,0,0,1-15.38-12H22.6V58.37c1.37,0,2.62,0,3.86,0a10,10,0,0,0,10.08-10.1q0-13.92,0-27.85a9.86,9.86,0,0,0-9.71-10q-8.22-.13-16.45,0A9.85,9.85,0,0,0,.64,20.39q0,14,0,28.07a9.8,9.8,0,0,0,7.81,9.61,34.53,34.53,0,0,0,4.81.3c.42,0,.85,0,1.35,0v8H17C19.6,77.91,29.88,82.63,36.49,82.21h15.8V72.64c0-2.41.35-4.12,1-5.16a3.73,3.73,0,0,1,3.37-1.57A2.86,2.86,0,0,1,59.2,67,5.74,5.74,0,0,1,60,70.33v11.9h5.57V68.95A7.7,7.7,0,0,0,63.7,63.39Zm-49.07-16a9.24,9.24,0,0,0-7-.44c-1,.31-2,.52-3,.81v-.9q0-13,0-25.89c0-4,2.51-6.52,6.52-6.52,5.12,0,10.24,0,15.37,0A5.93,5.93,0,0,1,32.38,19a14.17,14.17,0,0,1,.21,1.43h-4v2c1.15,0,2.25,0,3.33,0,.21,0,.58.25.58.38,0,1.84,0,3.68,0,5.6h-4v2h3.89v6H28.62v2h3.91v6H28.62v2h4c0,.62,0,1.16,0,1.69a.66.66,0,0,1-.43.43c-2.85.64-5.7,1.38-8.59,1.83a6.85,6.85,0,0,1-3.23-.6C18.37,49,16.49,48.18,14.62,47.36Z"/><path d="M80.5,82.59q-4.92,0-7.69-2.72T70,72.18q0-5.12,2.56-7.92a9.12,9.12,0,0,1,7.08-2.8,9,9,0,0,1,6.73,2.46,9.31,9.31,0,0,1,2.41,6.8v2.7H75.66a5.35,5.35,0,0,0,1.4,3.7,4.94,4.94,0,0,0,3.68,1.33,15.28,15.28,0,0,0,3.48-.38,17.38,17.38,0,0,0,3.43-1.22v4.3a13.09,13.09,0,0,1-3.12,1.08A19.71,19.71,0,0,1,80.5,82.59Zm-.78-17.17a3.53,3.53,0,0,0-2.77,1.12,5.18,5.18,0,0,0-1.15,3.18h7.8a4.64,4.64,0,0,0-1.08-3.18A3.64,3.64,0,0,0,79.71,65.42Z"/><path d="M109.72,82.23l-1.57-7.13-2.08-9h-.16l-3.72,16.13h-6l-5.8-20.38H96l2.35,9q.4,1.6,1.11,6.69h.15a37.28,37.28,0,0,1,.64-4.39l.29-1.55L103,61.85h6.13l2.39,9.77q.22,1,.54,2.94a25.49,25.49,0,0,1,.36,3h.15q.2-1.62.57-3.69t.62-3l2.44-9h5.45l-5.87,20.38Z"/><path d="M139.15,76.18A5.61,5.61,0,0,1,137,81q-2.18,1.64-6.52,1.64a20.41,20.41,0,0,1-3.79-.3,14.36,14.36,0,0,1-2.93-.88V76.82A19.34,19.34,0,0,0,127.22,78a14.16,14.16,0,0,0,3.42.49q3,0,3-1.75a1.46,1.46,0,0,0-.4-1.07,5.82,5.82,0,0,0-1.39-.93q-1-.52-2.63-1.21a16.49,16.49,0,0,1-3.46-1.82,5.14,5.14,0,0,1-1.6-1.92,6.34,6.34,0,0,1-.5-2.67,4.84,4.84,0,0,1,2.11-4.2,10.26,10.26,0,0,1,6-1.49,17,17,0,0,1,7.17,1.6l-1.68,4q-1.53-.66-2.86-1.08a9,9,0,0,0-2.72-.42q-2.46,0-2.46,1.33a1.56,1.56,0,0,0,.79,1.29,21.51,21.51,0,0,0,3.47,1.62,16.18,16.18,0,0,1,3.5,1.8,5.34,5.34,0,0,1,1.64,1.93A5.94,5.94,0,0,1,139.15,76.18Z"/></svg>