<?xml version="1.0" encoding="utf-8"?>
<!-- Generator: Adobe Illustrator 21.0.2, SVG Export Plug-In . SVG Version: 6.00 Build 0)  -->
<svg version="1.1" id="Camada_1" xmlns="http://www.w3.org/2000/svg" xmlns:xlink="http://www.w3.org/1999/xlink" x="0px" y="0px"
	 viewBox="0 0 155.5 180.1" style="enable-background:new 0 0 155.5 180.1;" xml:space="preserve">
<style type="text/css">
	.st0{fill:#FFFF00;}
	.st1{fill:#42210B;}
</style>
<g>
	<path d="M63.2,76.1c1,0,2.1-0.2,3.5-0.6v4.1c-1.4,0.6-3.1,0.9-5.1,0.9c-2.2,0-3.8-0.6-4.9-1.7c-1-1.1-1.5-2.8-1.5-5.1V64h-2.7v-2.4
		l3.1-1.9l1.6-4.3h3.6v4.3h5.7V64h-5.7v9.8c0,0.8,0.2,1.4,0.7,1.8C61.8,75.9,62.4,76.1,63.2,76.1z"/>
	<path d="M89.6,80.2H84V68.3c0-2.9-1.1-4.4-3.3-4.4c-1.6,0-2.7,0.5-3.4,1.6c-0.7,1.1-1,2.8-1,5.1v9.6h-5.6V51.8h5.6v5.8
		c0,0.5,0,1.5-0.1,3.2l-0.1,1.6h0.3c1.2-2,3.2-3,5.9-3c2.4,0,4.2,0.6,5.5,1.9c1.2,1.3,1.9,3.1,1.9,5.5V80.2z"/>
	<path d="M104.5,80.6c-3.3,0-5.8-0.9-7.7-2.7c-1.8-1.8-2.8-4.4-2.8-7.7c0-3.4,0.9-6.1,2.6-7.9c1.7-1.9,4.1-2.8,7.1-2.8
		c2.9,0,5.1,0.8,6.7,2.5c1.6,1.6,2.4,3.9,2.4,6.8v2.7H99.7c0.1,1.6,0.5,2.8,1.4,3.7c0.9,0.9,2.1,1.3,3.7,1.3c1.2,0,2.4-0.1,3.5-0.4
		c1.1-0.3,2.2-0.7,3.4-1.2v4.3c-1,0.5-2,0.8-3.1,1.1S106.1,80.6,104.5,80.6z M103.8,63.4c-1.2,0-2.1,0.4-2.8,1.1
		c-0.7,0.7-1.1,1.8-1.1,3.2h7.8c0-1.4-0.4-2.4-1.1-3.2C105.9,63.8,104.9,63.4,103.8,63.4z"/>
	<path d="M72.8,104.1h-5.6V92.2c0-1.5-0.2-2.6-0.7-3.3c-0.5-0.7-1.3-1.1-2.3-1.1c-1.4,0-2.5,0.5-3.1,1.6s-1,2.8-1,5.2v9.6h-5.6V83.7
		h4.2l0.7,2.6h0.3c0.5-0.9,1.3-1.7,2.4-2.2c1-0.5,2.2-0.8,3.6-0.8c3.1,0,5.1,1,6.2,3h0.5c0.5-0.9,1.4-1.7,2.4-2.2
		c1.1-0.5,2.3-0.8,3.6-0.8c2.3,0,4.1,0.6,5.2,1.8c1.2,1.2,1.8,3.1,1.8,5.7v13.3H80V92.2c0-1.5-0.2-2.6-0.7-3.3
		c-0.5-0.7-1.3-1.1-2.3-1.1c-1.4,0-2.4,0.5-3.1,1.5c-0.7,1-1,2.5-1,4.6V104.1z"/>
	<path d="M100.5,104.4c-3.3,0-5.8-0.9-7.7-2.7C90.9,99.9,90,97.3,90,94c0-3.4,0.9-6.1,2.6-7.9c1.7-1.9,4.1-2.8,7.1-2.8
		c2.9,0,5.1,0.8,6.7,2.5c1.6,1.6,2.4,3.9,2.4,6.8v2.7H95.6c0.1,1.6,0.5,2.8,1.4,3.7c0.9,0.9,2.1,1.3,3.7,1.3c1.2,0,2.4-0.1,3.5-0.4
		c1.1-0.3,2.2-0.7,3.4-1.2v4.3c-1,0.5-2,0.8-3.1,1.1S102.1,104.4,100.5,104.4z M99.7,87.2c-1.2,0-2.1,0.4-2.8,1.1
		c-0.7,0.7-1.1,1.8-1.1,3.2h7.8c0-1.4-0.4-2.4-1.1-3.2C101.8,87.6,100.9,87.2,99.7,87.2z"/>
	<path d="M119.8,104.4c-2.4,0-4.3-0.9-5.6-2.8c-1.4-1.9-2.1-4.4-2.1-7.7c0-3.3,0.7-5.9,2.1-7.8c1.4-1.9,3.3-2.8,5.8-2.8
		c2.6,0,4.5,1,5.9,3h0.2c-0.3-1.5-0.4-2.9-0.4-4.1v-6.5h5.6v28.4h-4.3l-1.1-2.6h-0.2C124.3,103.4,122.3,104.4,119.8,104.4z
		 M121.7,100c1.4,0,2.5-0.4,3.1-1.2c0.7-0.8,1-2.2,1.1-4.2v-0.6c0-2.2-0.3-3.8-1-4.7c-0.7-0.9-1.8-1.4-3.3-1.4
		c-1.2,0-2.2,0.5-2.9,1.6c-0.7,1.1-1,2.6-1,4.6c0,2,0.3,3.5,1,4.5C119.4,99.5,120.4,100,121.7,100z"/>
	<path d="M71.5,109.1c-1.2-1.3-3-1.9-5.4-1.9c-1.4,0-2.6,0.2-3.7,0.8c-1.1,0.5-2,1.2-2.6,2.2h-0.3l-0.8-2.6h-4.2V124H44.3
		c-3.6-0.1-6.9-1.2-9.7-3.4c-2.8-2.2-4.7-5-5.7-8.6h1.5v-7.9c1.4,0,2.6,0,3.9,0c5.7,0,10.1-4.4,10.1-10.1c0-9.3,0-18.6,0-27.8
		c0-5.5-4.2-9.9-9.7-10c-5.5-0.1-11-0.1-16.5,0s-9.7,4.4-9.8,9.9c0,9.4,0,18.7,0,28.1c0,4.7,3.3,8.7,7.8,9.6
		c1.6,0.3,3.2,0.2,4.8,0.3c0.4,0,0.9,0,1.3,0v8h2.4c2.6,11.6,12.9,16.3,19.5,15.9l10.2,0h5.6v-9.6c0-2.4,0.3-4.1,1-5.2
		c0.7-1,1.8-1.6,3.4-1.6c1.1,0,2,0.4,2.5,1.1c0.5,0.7,0.8,1.8,0.8,3.3v11.9h5.6v-13.3C73.4,112.2,72.8,110.4,71.5,109.1z M22.5,93
		c-2.3-1-4.6-1.2-7-0.4c-1,0.3-2,0.5-3,0.8v-0.9c0-8.6,0-17.3,0-25.9c0-4,2.5-6.5,6.5-6.5c5.1,0,10.2,0,15.4,0
		c2.9,0,5.2,1.8,5.9,4.5c0.1,0.4,0.1,0.9,0.2,1.4h-4v2c1.1,0,2.2,0,3.3,0c0.2,0,0.6,0.2,0.6,0.4c0,1.8,0,3.7,0,5.6h-4v2h3.9v6h-3.9
		v2h3.9v6h-3.9v2h4c0,0.6,0,1.2,0,1.7c0,0.2-0.3,0.4-0.4,0.4c-2.9,0.6-5.7,1.4-8.6,1.8c-1,0.2-2.2-0.2-3.2-0.6
		C26.2,94.7,24.3,93.9,22.5,93z"/>
	<path d="M88.3,128.3c-3.3,0-5.8-0.9-7.7-2.7c-1.8-1.8-2.8-4.4-2.8-7.7c0-3.4,0.9-6.1,2.6-7.9c1.7-1.9,4.1-2.8,7.1-2.8
		c2.9,0,5.1,0.8,6.7,2.5c1.6,1.6,2.4,3.9,2.4,6.8v2.7H83.5c0.1,1.6,0.5,2.8,1.4,3.7s2.1,1.3,3.7,1.3c1.2,0,2.4-0.1,3.5-0.4
		c1.1-0.3,2.2-0.7,3.4-1.2v4.3c-1,0.5-2,0.8-3.1,1.1C91.3,128.2,89.9,128.3,88.3,128.3z M87.6,111.1c-1.2,0-2.1,0.4-2.8,1.1
		c-0.7,0.7-1.1,1.8-1.1,3.2h7.8c0-1.4-0.4-2.4-1.1-3.2C89.7,111.5,88.7,111.1,87.6,111.1z"/>
	<path d="M117.6,127.9l-1.6-7.1l-2.1-9h-0.2l-3.7,16.1h-6l-5.8-20.4h5.5l2.4,9c0.3,1.1,0.6,3.3,1.1,6.7h0.1c0-0.9,0.3-2.4,0.6-4.4
		l0.3-1.6l2.5-9.8h6.1l2.4,9.8c0.1,0.7,0.3,1.7,0.5,2.9c0.2,1.3,0.3,2.3,0.4,3h0.1c0.1-1.1,0.3-2.3,0.6-3.7c0.2-1.4,0.4-2.4,0.6-3
		l2.4-9h5.5l-5.9,20.4H117.6z"/>
	<path d="M147,121.9c0,2.1-0.7,3.7-2.2,4.8c-1.5,1.1-3.6,1.6-6.5,1.6c-1.5,0-2.7-0.1-3.8-0.3c-1-0.2-2-0.5-2.9-0.9v-4.6
		c1,0.5,2.2,0.9,3.5,1.2c1.3,0.3,2.4,0.5,3.4,0.5c2,0,3-0.6,3-1.8c0-0.4-0.1-0.8-0.4-1.1c-0.3-0.3-0.7-0.6-1.4-0.9
		c-0.7-0.3-1.5-0.8-2.6-1.2c-1.6-0.7-2.7-1.3-3.5-1.8c-0.7-0.6-1.3-1.2-1.6-1.9c-0.3-0.7-0.5-1.6-0.5-2.7c0-1.8,0.7-3.2,2.1-4.2
		c1.4-1,3.4-1.5,6-1.5c2.5,0,4.8,0.5,7.2,1.6l-1.7,4c-1-0.4-2-0.8-2.9-1.1c-0.9-0.3-1.8-0.4-2.7-0.4c-1.6,0-2.5,0.4-2.5,1.3
		c0,0.5,0.3,0.9,0.8,1.3c0.5,0.4,1.7,0.9,3.5,1.6c1.6,0.6,2.8,1.2,3.5,1.8c0.7,0.6,1.3,1.2,1.6,1.9C146.8,120,147,120.9,147,121.9z"
		/>
</g>
</svg>
